<svg xmlns="http://www.w3.org/2000/svg" viewBox="-579.723 77.307 11.976 12.668">
  <defs>
    <style>
      .cls-1 {
        fill: #fff;
        stroke: rgba(0,0,0,0);
      }
    </style>
  </defs>
  <path id="Path_5306" data-name="Path 5306" class="cls-1" d="M1.269-3.171q-.023-.182-.028-.4t-.006-.45v-.353a2.169,2.169,0,0,0,.439-.632,2.471,2.471,0,0,0,.211-.758V-5.78a.506.506,0,0,0,.285-.171,1.119,1.119,0,0,0,.217-.638A.127.127,0,0,0,2.4-6.646v-.068a.579.579,0,0,0-.063-.262.589.589,0,0,0-.165-.205h0q.091-.308.205-.866A3.982,3.982,0,0,0,2.443-9.17a2.234,2.234,0,0,0-.33-1.02,1.3,1.3,0,0,0-.98-.558.848.848,0,0,0-.484-.376,2.439,2.439,0,0,0-.826-.125,3.121,3.121,0,0,0-1.516.353,1.878,1.878,0,0,0-.8.889A3,3,0,0,0-2.708-8.72,7.182,7.182,0,0,0-2.48-7.182a.589.589,0,0,0-.165.205.579.579,0,0,0-.063.262v.068a.127.127,0,0,0,.011.057h0a1.119,1.119,0,0,0,.217.638.506.506,0,0,0,.285.171,2.3,2.3,0,0,0,.222.769,2.5,2.5,0,0,0,.439.632h0a1.21,1.21,0,0,1,.011.171v.182q0,.228-.011.45t-.023.45v-.046a1.342,1.342,0,0,1-.82.775q-.638.251-1.339.553a4.925,4.925,0,0,0-1.271.792A2,2,0,0,0-5.613.418H5.3a2,2,0,0,0-.627-1.47,4.958,4.958,0,0,0-1.265-.792q-.7-.3-1.322-.553A1.342,1.342,0,0,1,1.269-3.171Z" transform="translate(-573.58 89.057)"/>
</svg>
