<svg xmlns="http://www.w3.org/2000/svg" viewBox="-1807 420 15.801 15.801"><defs><style>.a{opacity:0.3;}</style></defs><path class="a" d="M14.319.988a.494.494,0,0,1,.349.843l-.554.554-.289.289V4.938H11.851V6.913H9.875V8.888H8.569l.24,1.183a4.021,4.021,0,0,1,.08.792,3.95,3.95,0,1,1-3.95-3.95,3.889,3.889,0,0,1,1.81.464l.643.336L7.9,7.2,13.97,1.132a.494.494,0,0,1,.349-.145M4.938,12.838a1.975,1.975,0,1,0-1.975-1.975,1.977,1.977,0,0,0,1.975,1.975M14.319,0a1.476,1.476,0,0,0-1.047.434L7.205,6.5a4.877,4.877,0,0,0-2.267-.576,4.936,4.936,0,1,0,4.838,3.95h1.087V7.9h1.975V5.925h1.975V3.082l.554-.554A1.481,1.481,0,0,0,14.319,0ZM4.938,11.851a.988.988,0,1,1,.988-.988.987.987,0,0,1-.988.988Z" transform="translate(-1807 420)"/></svg>