<svg xmlns="http://www.w3.org/2000/svg" viewBox="-1807.5 364 14.18 14.759"><defs><style>.a{opacity:0.3;}</style></defs><g class="a" transform="translate(-1807.5 364)"><path d="M13.713,3.6a5.517,5.517,0,0,0-1.331-1.892A6.212,6.212,0,0,0,10.3.454,7.725,7.725,0,0,0,7.584,0a7.746,7.746,0,0,0-2.07.272,7.452,7.452,0,0,0-1.825.77A7.3,7.3,0,0,0,2.163,2.248,7.375,7.375,0,0,0,1,3.828,7.936,7.936,0,0,0,.258,5.719,8.654,8.654,0,0,0,0,7.851a7.54,7.54,0,0,0,.53,2.9,5.85,5.85,0,0,0,1.531,2.172A6.819,6.819,0,0,0,4.5,14.287a10.448,10.448,0,0,0,3.262.472A10.853,10.853,0,0,0,9.672,14.6a7.921,7.921,0,0,0,1.7-.512L10.922,13a6.96,6.96,0,0,1-1.451.432,9.4,9.4,0,0,1-1.727.147,9.039,9.039,0,0,1-2.737-.383,5.636,5.636,0,0,1-2.043-1.117,4.841,4.841,0,0,1-1.282-1.8,6.234,6.234,0,0,1-.445-2.426,7.118,7.118,0,0,1,.472-2.608,6.516,6.516,0,0,1,1.313-2.11A6.1,6.1,0,0,1,5.029,1.718,6.242,6.242,0,0,1,7.584,1.2a6.177,6.177,0,0,1,2.141.36,5.146,5.146,0,0,1,1.691,1,4.576,4.576,0,0,1,1.108,1.509,4.51,4.51,0,0,1,.4,1.9,6.186,6.186,0,0,1-.236,1.776,4.3,4.3,0,0,1-.636,1.331,2.846,2.846,0,0,1-.935.832,2.339,2.339,0,0,1-1.13.289.454.454,0,0,1-.374-.142.619.619,0,0,1-.116-.4,2.569,2.569,0,0,1,.058-.494c.039-.193.085-.446.138-.7l1.148-5.139H9.427l-.169.759a2.883,2.883,0,0,0-.97-.689,3.126,3.126,0,0,0-1.273-.233,3.3,3.3,0,0,0-1.567.4,4.166,4.166,0,0,0-1.3,1.083,5.283,5.283,0,0,0-.877,1.634,6.332,6.332,0,0,0-.321,2.048,4,4,0,0,0,.2,1.331,2.881,2.881,0,0,0,.57.988,2.368,2.368,0,0,0,.877.614,3.006,3.006,0,0,0,2.47-.12A3.706,3.706,0,0,0,8.225,10.2a1.312,1.312,0,0,0,.485.9,1.627,1.627,0,0,0,.485.267,1.769,1.769,0,0,0,.6.1,4.1,4.1,0,0,0,1.749-.374,3.961,3.961,0,0,0,1.393-1.082,5.144,5.144,0,0,0,.917-1.731,7.575,7.575,0,0,0,.329-2.323A5.912,5.912,0,0,0,13.713,3.6ZM8.368,7.851a3.907,3.907,0,0,1-.356.975,3.118,3.118,0,0,1-.539.739,2.229,2.229,0,0,1-.681.472,1.9,1.9,0,0,1-.774.165q-1.531,0-1.531-1.932a5.216,5.216,0,0,1,.209-1.5,4.583,4.583,0,0,1,.556-1.228,2.922,2.922,0,0,1,.806-.832,1.694,1.694,0,0,1,.957-.307,2.434,2.434,0,0,1,1.148.249,2.71,2.71,0,0,1,.783.605Z"/></g></svg>