<svg xmlns="http://www.w3.org/2000/svg" viewBox="-1723.5 267.418 115.547 44.872">
  <defs>
    <style>
      .cls-1 {
        fill: #50e3a4;
        stroke: rgba(0,0,0,0);
      }
    </style>
  </defs>
  <g id="Group_3" data-name="Group 3" transform="translate(-2306 219)">
    <path id="Path_3" data-name="Path 3" class="cls-1" d="M17.251-78.8a2.135,2.135,0,0,0,.856,1.92,4.328,4.328,0,0,0,2.413.571,10.419,10.419,0,0,0,1.609-.13,9.043,9.043,0,0,0,1.453-.337,6.344,6.344,0,0,1,.8,1.271,3.859,3.859,0,0,1,.337,1.687A4.012,4.012,0,0,1,23.245-70.6q-1.479,1.246-5.216,1.246-4.567,0-7.032-2.076T8.532-78.178V-100.39q.571-.156,1.635-.337a13.411,13.411,0,0,1,2.258-.182,6.638,6.638,0,0,1,3.555.8q1.272.8,1.271,3.4v3.321h6.8a8.882,8.882,0,0,1,.6,1.427,5.963,5.963,0,0,1,.285,1.894,3.6,3.6,0,0,1-.8,2.621,2.911,2.911,0,0,1-2.154.8H17.251Zm37.73-3.944a15.63,15.63,0,0,1-.986,5.735,11.624,11.624,0,0,1-2.777,4.23,11.808,11.808,0,0,1-4.282,2.595,16.548,16.548,0,0,1-5.553.882,15.713,15.713,0,0,1-5.553-.934,12.221,12.221,0,0,1-4.282-2.673,11.924,11.924,0,0,1-2.777-4.23,15.12,15.12,0,0,1-.986-5.6,14.971,14.971,0,0,1,.986-5.553,11.924,11.924,0,0,1,2.777-4.23A12.221,12.221,0,0,1,35.83-95.2a15.713,15.713,0,0,1,5.553-.934,15.332,15.332,0,0,1,5.553.96,12.534,12.534,0,0,1,4.282,2.7,11.924,11.924,0,0,1,2.777,4.23A14.823,14.823,0,0,1,54.981-82.745Zm-18.164,0a8.2,8.2,0,0,0,1.22,4.852,3.957,3.957,0,0,0,3.4,1.687,3.808,3.808,0,0,0,3.347-1.713,8.506,8.506,0,0,0,1.168-4.827,8.234,8.234,0,0,0-1.194-4.8,3.891,3.891,0,0,0-3.373-1.687,3.891,3.891,0,0,0-3.373,1.687A8.234,8.234,0,0,0,36.816-82.745Zm21.382,0a15.529,15.529,0,0,1,1.038-5.942,11.349,11.349,0,0,1,2.88-4.178,11.831,11.831,0,0,1,4.308-2.465,17.051,17.051,0,0,1,5.32-.8,11.15,11.15,0,0,1,2.024.182,8.073,8.073,0,0,1,1.609.441v-8.407a14.1,14.1,0,0,1,1.661-.337,14.843,14.843,0,0,1,2.335-.182,12.207,12.207,0,0,1,2.05.156,3.492,3.492,0,0,1,1.531.623,2.816,2.816,0,0,1,.934,1.271,5.92,5.92,0,0,1,.311,2.1v24.6a4.429,4.429,0,0,1-2.284,3.892,15.819,15.819,0,0,1-3.892,1.739,18.312,18.312,0,0,1-5.5.753,18.258,18.258,0,0,1-6.046-.934,12.282,12.282,0,0,1-4.515-2.7,11.607,11.607,0,0,1-2.8-4.23A15.276,15.276,0,0,1,58.2-82.745Zm14.739-6.487a5.611,5.611,0,0,0-4.308,1.609,6.922,6.922,0,0,0-1.505,4.878,7.283,7.283,0,0,0,1.4,4.852,5.038,5.038,0,0,0,4.048,1.635,4.726,4.726,0,0,0,1.687-.285,3.842,3.842,0,0,0,1.168-.649V-88.609A4.754,4.754,0,0,0,72.937-89.232Zm42.868,6.487a15.63,15.63,0,0,1-.986,5.735,11.624,11.624,0,0,1-2.777,4.23,11.808,11.808,0,0,1-4.282,2.595,16.548,16.548,0,0,1-5.553.882,15.713,15.713,0,0,1-5.553-.934,12.22,12.22,0,0,1-4.282-2.673A11.924,11.924,0,0,1,89.6-77.14a15.12,15.12,0,0,1-.986-5.6A14.971,14.971,0,0,1,89.6-88.3a11.924,11.924,0,0,1,2.777-4.23A12.221,12.221,0,0,1,96.655-95.2a15.713,15.713,0,0,1,5.553-.934,15.332,15.332,0,0,1,5.553.96,12.534,12.534,0,0,1,4.282,2.7,11.924,11.924,0,0,1,2.777,4.23A14.824,14.824,0,0,1,115.805-82.745Zm-18.164,0a8.2,8.2,0,0,0,1.22,4.852,3.957,3.957,0,0,0,3.4,1.687,3.808,3.808,0,0,0,3.347-1.713,8.505,8.505,0,0,0,1.168-4.827,8.234,8.234,0,0,0-1.194-4.8,3.891,3.891,0,0,0-3.373-1.687,3.891,3.891,0,0,0-3.373,1.687A8.234,8.234,0,0,0,97.641-82.745Z" transform="translate(574.468 162.093)"/>
    <path id="Path_2" data-name="Path 2" class="cls-1" d="M13.449-124.224H6.32v-3.856a10.719,10.719,0,0,1,1.227-5.113,7.931,7.931,0,0,1,3.623-3.477l1.987,1.461a9.561,9.561,0,0,0-1.285,1.023,11.386,11.386,0,0,0-1.052,1.139,4.911,4.911,0,0,0-1.169,2.98h3.8Z" transform="translate(684.019 185.67)"/>
  </g>
</svg>
