<svg xmlns="http://www.w3.org/2000/svg" viewBox="833.032 -274.371 349.491 134.399"><defs><style>.a{fill:#fff;stroke:rgba(0,0,0,0);}</style></defs><g transform="translate(28 -669)"><path class="a" d="M35.076-26.386q0,4.108,2.607,5.846T45.03-18.8a31.722,31.722,0,0,0,4.9-.4,27.533,27.533,0,0,0,4.424-1.027A19.315,19.315,0,0,1,56.8-16.353a11.748,11.748,0,0,1,1.027,5.135,12.215,12.215,0,0,1-4.5,9.8Q48.822,2.37,37.446,2.37q-13.9,0-21.409-6.32t-7.5-20.54V-92.114q1.738-.474,4.977-1.027a40.829,40.829,0,0,1,6.873-.553q6.952,0,10.823,2.449T35.076-80.9v10.112h20.7a27.042,27.042,0,0,1,1.817,4.345,18.155,18.155,0,0,1,.869,5.767q0,5.53-2.449,7.979a8.861,8.861,0,0,1-6.557,2.449H35.076ZM149.942-38.394a47.584,47.584,0,0,1-3,17.459,35.389,35.389,0,0,1-8.453,12.877,35.949,35.949,0,0,1-13.035,7.9,50.378,50.378,0,0,1-16.906,2.686A47.837,47.837,0,0,1,91.64-.316,37.2,37.2,0,0,1,78.6-8.453,36.3,36.3,0,0,1,70.152-21.33a46.033,46.033,0,0,1-3-17.064,45.578,45.578,0,0,1,3-16.906A36.3,36.3,0,0,1,78.6-68.177,37.2,37.2,0,0,1,91.64-76.314a47.837,47.837,0,0,1,16.906-2.844,46.675,46.675,0,0,1,16.906,2.923,38.158,38.158,0,0,1,13.035,8.216,36.3,36.3,0,0,1,8.453,12.877A45.129,45.129,0,0,1,149.942-38.394Zm-55.3,0q0,9.638,3.713,14.773A12.048,12.048,0,0,0,108.7-18.486,11.592,11.592,0,0,0,118.9-23.7q3.555-5.214,3.555-14.694t-3.634-14.615a11.845,11.845,0,0,0-10.27-5.135,11.845,11.845,0,0,0-10.27,5.135Q94.642-47.874,94.642-38.394Zm65.1,0a47.277,47.277,0,0,1,3.16-18.091A34.552,34.552,0,0,1,171.667-69.2a36.019,36.019,0,0,1,13.114-7.5,51.912,51.912,0,0,1,16.2-2.449,33.947,33.947,0,0,1,6.162.553,24.578,24.578,0,0,1,4.9,1.343v-25.6a42.94,42.94,0,0,1,5.056-1.027,45.187,45.187,0,0,1,7.11-.553,37.163,37.163,0,0,1,6.241.474,10.632,10.632,0,0,1,4.661,1.9,8.574,8.574,0,0,1,2.844,3.871,18.025,18.025,0,0,1,.948,6.4v74.892q0,7.426-6.952,11.85A48.16,48.16,0,0,1,220.094.237a55.751,55.751,0,0,1-16.748,2.291A55.586,55.586,0,0,1,184.939-.316a37.393,37.393,0,0,1-13.746-8.216,35.337,35.337,0,0,1-8.532-12.877A46.508,46.508,0,0,1,159.738-38.394Zm44.872-19.75q-8.532,0-13.114,4.9t-4.582,14.852q0,9.8,4.266,14.773T203.5-18.644a14.387,14.387,0,0,0,5.135-.869,11.7,11.7,0,0,0,3.555-1.975v-34.76A14.474,14.474,0,0,0,204.61-58.144Zm130.508,19.75a47.584,47.584,0,0,1-3,17.459,35.389,35.389,0,0,1-8.453,12.877,35.949,35.949,0,0,1-13.035,7.9,50.378,50.378,0,0,1-16.906,2.686A47.837,47.837,0,0,1,276.816-.316a37.2,37.2,0,0,1-13.035-8.137,36.3,36.3,0,0,1-8.453-12.877,46.033,46.033,0,0,1-3-17.064,45.578,45.578,0,0,1,3-16.906,36.3,36.3,0,0,1,8.453-12.877,37.2,37.2,0,0,1,13.035-8.137,47.837,47.837,0,0,1,16.906-2.844,46.675,46.675,0,0,1,16.906,2.923,38.158,38.158,0,0,1,13.035,8.216,36.3,36.3,0,0,1,8.453,12.877A45.129,45.129,0,0,1,335.118-38.394Zm-55.3,0q0,9.638,3.713,14.773a12.048,12.048,0,0,0,10.349,5.135A11.592,11.592,0,0,0,304.071-23.7q3.555-5.214,3.555-14.694t-3.634-14.615a11.845,11.845,0,0,0-10.27-5.135,11.845,11.845,0,0,0-10.27,5.135Q279.818-47.874,279.818-38.394Z" transform="translate(797 526)"/><path class="a" d="M28.023-98.779H6.32V-110.52a32.634,32.634,0,0,1,3.736-15.565A24.146,24.146,0,0,1,21.085-136.67l6.048,4.447a29.11,29.11,0,0,0-3.914,3.113,34.659,34.659,0,0,0-3.2,3.469q-3.558,4.625-3.558,9.072H28.023Z" transform="translate(1126 531.881)"/></g></svg>